HIERARCHY
ROOT Hips
{
  OFFSET 1.44925e-005 102.336 -0.101585
  CHANNELS 6 Xposition Yposition Zposition Zrotation Xrotation Yrotation
  JOINT LeftUpLeg
  {
    OFFSET 8.9458 -8.66707 0.101652
    CHANNELS 3 Zrotation Xrotation Yrotation
    JOINT LeftLeg
    {
      OFFSET 0 -44.4227 1.3727
      CHANNELS 3 Zrotation Xrotation Yrotation
      JOINT LeftFoot
      {
        OFFSET -0.253549 -42.0924 -1.46059
        CHANNELS 3 Zrotation Xrotation Yrotation
        JOINT LeftToes
        {
          OFFSET -0.04 -4.41509 8.4991
          CHANNELS 3 Zrotation Xrotation Yrotation
          End Site
          {
            OFFSET 0.08 -0.047448 9.77979
          }
        }
      }
    }
  }
  JOINT Spine
  {
    OFFSET 0 11.8905 0
    CHANNELS 3 Zrotation Xrotation Yrotation
    JOINT Spine1
    {
      OFFSET 0 25.6574 0.127663
      CHANNELS 3 Zrotation Xrotation Yrotation
      JOINT RightShoulder
      {
        OFFSET -8.99 -0.362252 -0.22
        CHANNELS 3 Zrotation Xrotation Yrotation
        JOINT RightArm
        {
          OFFSET -10.2827 -0.00338 0.322123
          CHANNELS 3 Zrotation Xrotation Yrotation
          JOINT RightForeArm
          {
            OFFSET -26.364 0.099144 -1.42434
            CHANNELS 3 Zrotation Xrotation Yrotation
            JOINT RightHand
            {
              OFFSET -22.0324 0.085362 1.02216
              CHANNELS 3 Zrotation Xrotation Yrotation
              End Site
              {
                OFFSET -13.3284 -0.6 1.50291
              }
            }
          }
        }
      }
      JOINT LeftShoulder1
      {
        OFFSET 8.99 -0.362252 -0.22
        CHANNELS 3 Zrotation Xrotation Yrotation
        JOINT LeftArm
        {
          OFFSET 10.2827 -0.00337999 0.322123
          CHANNELS 3 Zrotation Xrotation Yrotation
          JOINT LeftForeArm
          {
            OFFSET 26.2597 0.099144 -1.42434
            CHANNELS 3 Zrotation Xrotation Yrotation
            JOINT LeftHand
            {
              OFFSET 22.0902 0.085362 1.02216
              CHANNELS 3 Zrotation Xrotation Yrotation
              End Site
              {
                OFFSET 13.419 -0.6 1.50291
              }
            }
          }
        }
      }
      JOINT Head
      {
        OFFSET 0 8.73416 0.011341
        CHANNELS 3 Zrotation Xrotation Yrotation
        End Site
        {
          OFFSET -0.29 12.7742 2.51395
        }
      }
    }
  }
  JOINT RightUpLeg
  {
    OFFSET -8.9458 -8.66707 0.101652
    CHANNELS 3 Zrotation Xrotation Yrotation
    JOINT RightLeg
    {
      OFFSET 0 -44.4227 1.3727
      CHANNELS 3 Zrotation Xrotation Yrotation
      JOINT RightFoot
      {
        OFFSET 0.253549 -42.0924 -1.46059
        CHANNELS 3 Zrotation Xrotation Yrotation
        JOINT RightToes
        {
          OFFSET 0.04 -4.41509 8.4991
          CHANNELS 3 Zrotation Xrotation Yrotation
          End Site
          {
            OFFSET -0.08 -0.137448 9.77979
          }
        }
      }
    }
  }
}
MOTION
Frames:	7
Frame Time:	0.0333333
46.7638 97.7655 -0.272733 -8.62238 5.08934 -88.6858 3.34288 6.36864 0.104669 1.63681 53.6503 19.7136 -8.81678 -5.89185 0.163935 -1.30712e-009 8.75241e-006 -1.45914e-008 11.4439 10.1127 -2.29293 -1.4173 0.153469 -0.247428 37.4378 1.74972 0.0117122 38.0486 -24.9051 3.5637 8.91545 42.9516 4.7449 -10.7288 9.34157 1.07272 -44.7952 3.56131 -3.41162 -27.625 -12.9733 10.7183 -6.51895 41.4834 -11.3027 5.82328 9.61819 -0.917488 0.509175 -10.8932 -5.23899 7.4842 -12.9754 -1.59839 0.161478 27.2336 -17.9468 -0.0593338 -11.5068 -0.199331 0.0462048 0.000530889 0.662642 
44.1699 97.825 -0.797643 -8.93067 5.29942 -87.6722 3.99019 0.972285 -0.666931 2.11316 62.5386 19.7351 -7.21497 -0.678274 0.436392 -1.30712e-009 8.75241e-006 -1.45914e-008 12.6288 10.4934 -2.28618 -1.88991 0.0409345 0.191193 37.2725 1.74399 0.0124017 38.6332 -22.4552 4.3703 7.96299 39.8519 7.38501 -10.9569 9.30512 1.3477 -44.7559 3.55438 -3.40361 -27.4429 -13.5593 12.4982 -6.11598 41.5847 -11.6403 5.82328 9.61819 -0.917488 0.426185 -10.6989 -6.57998 7.83355 -11.1149 -2.12263 0.579211 27.5703 -18.2889 -0.493076 -13.5542 -0.236148 0.0462048 0.000530889 0.662642 
41.6116 98.0648 -1.28505 -9.4497 4.99441 -87.1626 3.76753 -3.56639 -0.978925 2.70659 68.9289 19.1039 -6.44996 -1.00617 0.367896 -1.30712e-009 8.75241e-006 -1.45914e-008 13.0556 10.8464 -2.04663 -2.43018 0.345237 0.758757 37.1493 1.74204 0.0182698 38.9475 -18.232 5.92397 7.03561 36.5323 10.0308 -11.1027 9.28989 1.42409 -44.7313 3.55414 -3.40662 -27.5617 -13.5291 13.8839 -5.41862 39.5882 -12.7115 5.82328 9.61819 -0.917488 0.376412 -10.8368 -7.6602 7.70056 -8.70808 -2.64978 0.931653 27.4642 -18.4501 -0.47798 -15.5121 -0.257385 0.0462048 0.000530889 0.662642 
39.053 98.3923 -1.75038 -9.9356 4.26648 -87.1243 2.98943 -7.47939 -0.911447 3.19783 72.4876 18.0796 -5.97036 -4.12617 0.193299 -1.30712e-009 8.75241e-006 -1.45914e-008 12.8301 11.1543 -1.64245 -2.9895 0.559556 1.37196 36.9355 1.73846 0.0280615 39.1175 -13.8741 7.87637 6.17551 33.8788 12.2048 -11.1957 9.28188 1.45211 -44.717 3.55294 -3.40754 -27.8397 -12.9748 14.9989 -4.76026 36.97 -13.9418 5.82328 9.61819 -0.917488 0.294916 -10.6428 -8.33477 7.08808 -6.14353 -3.29737 1.22377 27.0094 -18.0986 -0.40449 -16.9208 -0.267369 0.0462048 0.000530889 0.662642 
36.5235 98.6622 -2.16864 -10.2892 3.55569 -87.4545 2.14117 -10.989 -0.856464 3.28668 73.3009 17.3818 -5.62338 -6.91219 0.0638628 -1.30712e-009 8.75241e-006 -1.45914e-008 12.6252 11.3668 -1.15919 -3.73347 0.598741 2.00847 36.5433 1.73061 0.0435712 39.4427 -10.5687 10.0021 5.46686 31.7243 13.8525 -11.1897 9.27234 1.56458 -44.7223 3.55096 -3.40223 -28.1645 -12.0485 15.7329 -4.08013 34.9551 -15.1598 5.82328 9.61819 -0.917488 0.208221 -10.0556 -8.7926 6.42644 -3.74692 -3.9834 1.42009 26.4858 -17.2076 -0.510517 -18.0074 -0.288572 0.0462048 0.000530889 0.662642 
34.0334 98.8916 -2.53325 -10.5198 3.01196 -87.9008 1.31335 -13.9902 -1.20498 2.93008 71.533 17.2366 -4.85634 -8.9155 -0.0150939 -1.30712e-009 8.75241e-006 -1.45914e-008 12.6444 11.4255 -0.718256 -4.69449 0.612778 2.55618 36.1475 1.7228 0.0567744 39.729 -7.81517 12.1213 4.80769 29.2642 15.4558 -10.9797 9.28058 1.61529 -44.6947 3.54632 -3.39738 -28.5245 -10.9208 16.0262 -3.39109 33.4539 -16.3243 5.82328 9.61819 -0.917488 0.2108 -9.44981 -9.15639 5.96242 -1.45572 -4.51375 1.50597 25.853 -16.3164 -0.641809 -19.0603 -0.313869 0.0462048 0.000530889 0.662642 
31.5907 99.0898 -2.85518 -10.6598 2.55159 -88.2569 0.554286 -16.2783 -1.92009 2.3646 67.3155 17.1484 -4.67016 -10.7305 -0.0793893 -1.30712e-009 8.75241e-006 -1.45914e-008 12.6898 11.4347 -0.405016 -5.6955 0.570307 2.91804 36.0087 1.72012 0.057709 39.5093 -4.92216 14.0557 4.07419 26.4052 17.3406 -10.7005 9.30936 1.4756 -44.6051 3.53663 -3.39172 -28.8272 -9.95209 15.9161 -2.90342 32.1988 -17.2194 5.82328 9.61819 -0.917488 0.293103 -9.03531 -9.33418 5.60464 0.816431 -4.94786 1.55153 25.0146 -15.6151 -0.547582 -20.0236 -0.315599 0.0462048 0.000530889 0.662642 
